<!-- 
        <svg xmlns="http://www.w3.org/2000/svg" version="1.1" xmlns:xlink="http://www.w3.org/1999/xlink" xmlns:svgjs="http://svgjs.com/svgjs" width="1440" height="790" preserveAspectRatio="none" viewBox="0 0 1440 790">
    <g mask="url(&quot;#SvgjsMask1053&quot;)" fill="none">
        <rect width="1440" height="790" x="0" y="0" fill="rgba(147, 111, 177, 1)"></rect>
        <path d="M539.3915978370532 88.79725772861681L642.6900757382273 267.7154697979811 821.6082878075915 164.41699189680696 718.3098099064174-14.501220172557325z" fill="rgba(201, 45, 18, 0.43)" class="triangle-float3"></path>
        <path d="M714.0246834979025 410.3615764760235L711.3475179451775 555.7933688278819 823.6158918166223 496.09921556313753z" fill="rgba(201, 45, 18, 0.43)" class="triangle-float1"></path>
        <path d="M1124.7253361092332 339.1956765869307L1161.946028761912 200.81381885703226 1040.4001641817958 231.11860652664032z" fill="rgba(201, 45, 18, 0.43)" class="triangle-float1"></path>
        <path d="M288.4300523507694 86.96999827301642L100.74474692993016 83.69393908082333 97.46868773773707 271.3792445016626 285.1539931585763 274.65530369385567z" fill="rgba(201, 45, 18, 0.43)" class="triangle-float3"></path>
        <path d="M1361.6374600692725 79.94260849610666L1214.5906267725168 237.63103143176312 1519.325883004929 226.98944179286235z" fill="rgba(201, 45, 18, 0.43)" class="triangle-float1"></path>
        <path d="M250.831,175.789C290.679,177.126,323.116,147.236,342.786,112.556C362.157,78.403,367.48,37.433,348.934,2.825C329.362,-33.696,292.215,-61.086,250.831,-59.036C212.009,-57.113,185.441,-23.076,168.231,11.776C153.212,42.192,153.721,76.426,168.979,106.723C186.189,140.896,212.591,174.506,250.831,175.789" fill="rgba(201, 45, 18, 0.43)" class="triangle-float3"></path>
        <path d="M331.31843957730325 353.1750530095941L392.4012472302868 209.27297608915546 248.49917030984818 148.19016843617192 187.41636265686464 292.09224535661053z" fill="rgba(201, 45, 18, 0.43)" class="triangle-float3"></path>
        <path d="M443.544,826.27C490.995,826.804,544.105,825.364,569.986,785.589C597.582,743.178,588.637,687.217,562.023,644.183C536.803,603.402,491.486,581.929,443.544,581.134C394.01,580.312,343.639,597.713,318.056,640.137C291.726,683.799,293.43,740.523,321.932,782.8C347.725,821.058,397.407,825.751,443.544,826.27" fill="rgba(201, 45, 18, 0.43)" class="triangle-float1"></path>
        <path d="M1154.6044906959532 716.4006190789305L1206.6806348320717 642.0281776321176 1069.083900593793 601.1001821513461z" fill="rgba(201, 45, 18, 0.43)" class="triangle-float2"></path>
    </g>
    <defs>
        <mask id="SvgjsMask1053">
            <rect width="1440" height="790" fill="#ffffff"></rect>
        </mask>
        <style>
            @keyframes float1 {
                0%{transform: translate(0, 0)}
                50%{transform: translate(-10px, 0)}
                100%{transform: translate(0, 0)}
            }

            .triangle-float1 {
                animation: float1 5s infinite;
            }

            @keyframes float2 {
                0%{transform: translate(0, 0)}
                50%{transform: translate(-5px, -5px)}
                100%{transform: translate(0, 0)}
            }

            .triangle-float2 {
                animation: float2 4s infinite;
            }

            @keyframes float3 {
                0%{transform: translate(0, 0)}
                50%{transform: translate(0, -10px)}
                100%{transform: translate(0, 0)}
            }

            .triangle-float3 {
                animation: float3 6s infinite;
            }
        </style>
    </defs>
</svg> -->
<svg xmlns="http://www.w3.org/2000/svg" version="1.1" xmlns:xlink="http://www.w3.org/1999/xlink" xmlns:svgjs="http://svgjs.com/svgjs" width="1780" height="790" preserveAspectRatio="none" viewBox="0 0 1780 790">
    <g mask="url(&quot;#SvgjsMask1061&quot;)" fill="none">
        <rect width="1780" height="790" x="0" y="0" fill="rgba(147, 111, 177, 1)"></rect>
        <path d="M1331.712348148828 193.76877884291164L1121.202569442216 190.09431698756302 1117.5281075868672 400.6040956941751 1328.0378862934792 404.2785575495237z" fill="rgba(201, 45, 18, 0.43)" class="triangle-float1"></path>
        <path d="M1265.862,849.049C1332.307,847.726,1397.525,820.755,1430.945,763.312C1464.541,705.567,1460.215,632.869,1424.472,576.428C1391.034,523.626,1328.342,501.086,1265.862,502.631C1206.306,504.104,1153.144,534.259,1120.285,583.952C1083.085,640.21,1056.524,711.002,1088.988,770.12C1122.296,830.773,1196.679,850.426,1265.862,849.049" fill="rgba(201, 45, 18, 0.43)" class="triangle-float2"></path>
        <path d="M629.1051103775105 575.2995229239481L417.9538632322817 604.769716554163 530.1132198887224 753.6102100013693z" fill="rgba(201, 45, 18, 0.43)" class="triangle-float1"></path>
        <path d="M399.12180920124524 659.9067817197447L289.91191316391564 454.51283996461757 84.51797140878858 563.7227360019472 193.72786744611815 769.1166777570743z" fill="rgba(201, 45, 18, 0.43)" class="triangle-float2"></path>
        <path d="M1717.846,559.385C1760.397,558.256,1798.303,535.748,1820.975,499.723C1845.413,460.893,1856.626,412.97,1835.682,372.149C1813.038,328.016,1767.445,299.324,1717.846,298.724C1667.235,298.112,1619.256,324.831,1594.97,369.239C1571.558,412.047,1578.303,464.478,1604.785,505.458C1629.074,543.045,1673.11,560.572,1717.846,559.385" fill="rgba(201, 45, 18, 0.43)" class="triangle-float3"></path>
        <path d="M217.24682388282844 107.20803097133243L132.8483127261165-58.43337367382402-32.793091919039966 25.96513748288791 51.60541923767198 191.60654212804437z" fill="rgba(201, 45, 18, 0.43)" class="triangle-float1"></path>
        <path d="M1203.947545948429 141.62332997312163L1172.9324670243918 17.228642772483994 1048.5377798237541 48.24372169652115 1079.5528587477913 172.6384088971588z" fill="rgba(201, 45, 18, 0.43)" class="triangle-float3"></path>
        <path d="M1438.3646304641943-86.09486871262423L1379.3845142554408 20.308077539425483 1485.7874605074903 79.28819374817913 1544.767576716244-27.114752503870598z" fill="rgba(201, 45, 18, 0.43)" class="triangle-float1"></path>
        <path d="M226.53966287352074 488.02151609689747L215.89112940192973 284.8353934016206 12.705006706652853 295.4839268732116 23.35354017824386 498.6700495684885z" fill="rgba(201, 45, 18, 0.43)" class="triangle-float1"></path>
    </g>
    <defs>
        <mask id="SvgjsMask1061">
            <rect width="1780" height="790" fill="#ffffff"></rect>
        </mask>
        <style>
            @keyframes float1 {
                0%{transform: translate(0, 0)}
                50%{transform: translate(-10px, 0)}
                100%{transform: translate(0, 0)}
            }

            .triangle-float1 {
                animation: float1 5s infinite;
            }

            @keyframes float2 {
                0%{transform: translate(0, 0)}
                50%{transform: translate(-5px, -5px)}
                100%{transform: translate(0, 0)}
            }

            .triangle-float2 {
                animation: float2 4s infinite;
            }

            @keyframes float3 {
                0%{transform: translate(0, 0)}
                50%{transform: translate(0, -10px)}
                100%{transform: translate(0, 0)}
            }

            .triangle-float3 {
                animation: float3 6s infinite;
            }
        </style>
    </defs>
</svg>