<svg xmlns="http://www.w3.org/2000/svg" version="1.1" xmlns:xlink="http://www.w3.org/1999/xlink" xmlns:svgjs="http://svgjs.com/svgjs" width="1800" height="800" preserveAspectRatio="none" viewBox="0 0 1800 800"><g mask="url(&quot;#SvgjsMask1033&quot;)" fill="none"><rect width="1800" height="800" x="0" y="0" fill="#0e2a47"></rect><path d="M1473 151L1472 573" stroke-width="10" stroke="url(#SvgjsLinearGradient1034)" stroke-linecap="round" class="Down"></path><path d="M1246 402L1245 721" stroke-width="10" stroke="url(#SvgjsLinearGradient1035)" stroke-linecap="round" class="Up"></path><path d="M1410 128L1409 -266" stroke-width="6" stroke="url(#SvgjsLinearGradient1034)" stroke-linecap="round" class="Down"></path><path d="M1659 436L1658 1034" stroke-width="6" stroke="url(#SvgjsLinearGradient1034)" stroke-linecap="round" class="Down"></path><path d="M1191 630L1190 396" stroke-width="6" stroke="url(#SvgjsLinearGradient1034)" stroke-linecap="round" class="Down"></path><path d="M618 633L617 155" stroke-width="8" stroke="url(#SvgjsLinearGradient1034)" stroke-linecap="round" class="Down"></path><path d="M1149 107L1148 623" stroke-width="6" stroke="url(#SvgjsLinearGradient1035)" stroke-linecap="round" class="Up"></path><path d="M868 782L867 486" stroke-width="10" stroke="url(#SvgjsLinearGradient1035)" stroke-linecap="round" class="Up"></path><path d="M657 422L656 997" stroke-width="6" stroke="url(#SvgjsLinearGradient1035)" stroke-linecap="round" class="Up"></path><path d="M946 478L945 1018" stroke-width="10" stroke="url(#SvgjsLinearGradient1035)" stroke-linecap="round" class="Up"></path><path d="M1342 790L1341 506" stroke-width="6" stroke="url(#SvgjsLinearGradient1035)" stroke-linecap="round" class="Up"></path><path d="M835 104L834 -301" stroke-width="8" stroke="url(#SvgjsLinearGradient1034)" stroke-linecap="round" class="Down"></path><path d="M1438 319L1437 -134" stroke-width="10" stroke="url(#SvgjsLinearGradient1035)" stroke-linecap="round" class="Up"></path><path d="M928 395L927 869" stroke-width="10" stroke="url(#SvgjsLinearGradient1035)" stroke-linecap="round" class="Up"></path><path d="M103 425L102 916" stroke-width="10" stroke="url(#SvgjsLinearGradient1035)" stroke-linecap="round" class="Up"></path><path d="M1728 667L1727 1134" stroke-width="8" stroke="url(#SvgjsLinearGradient1035)" stroke-linecap="round" class="Up"></path><path d="M271 474L270 764" stroke-width="8" stroke="url(#SvgjsLinearGradient1034)" stroke-linecap="round" class="Down"></path><path d="M279 408L278 639" stroke-width="8" stroke="url(#SvgjsLinearGradient1034)" stroke-linecap="round" class="Down"></path><path d="M1716 3L1715 265" stroke-width="8" stroke="url(#SvgjsLinearGradient1034)" stroke-linecap="round" class="Down"></path><path d="M209 656L208 923" stroke-width="6" stroke="url(#SvgjsLinearGradient1035)" stroke-linecap="round" class="Up"></path><path d="M1246 798L1245 1345" stroke-width="8" stroke="url(#SvgjsLinearGradient1034)" stroke-linecap="round" class="Down"></path><path d="M262 291L261 742" stroke-width="10" stroke="url(#SvgjsLinearGradient1035)" stroke-linecap="round" class="Up"></path><path d="M769 769L768 1365" stroke-width="6" stroke="url(#SvgjsLinearGradient1034)" stroke-linecap="round" class="Down"></path><path d="M1653 486L1652 699" stroke-width="8" stroke="url(#SvgjsLinearGradient1035)" stroke-linecap="round" class="Up"></path><path d="M1216 258L1215 657" stroke-width="10" stroke="url(#SvgjsLinearGradient1035)" stroke-linecap="round" class="Up"></path><path d="M1149 749L1148 1304" stroke-width="6" stroke="url(#SvgjsLinearGradient1034)" stroke-linecap="round" class="Down"></path><path d="M497 110L496 -92" stroke-width="10" stroke="url(#SvgjsLinearGradient1035)" stroke-linecap="round" class="Up"></path><path d="M1087 361L1086 798" stroke-width="6" stroke="url(#SvgjsLinearGradient1035)" stroke-linecap="round" class="Up"></path><path d="M676 745L675 435" stroke-width="10" stroke="url(#SvgjsLinearGradient1035)" stroke-linecap="round" class="Up"></path><path d="M794 724L793 337" stroke-width="10" stroke="url(#SvgjsLinearGradient1035)" stroke-linecap="round" class="Up"></path><path d="M235 567L234 1114" stroke-width="6" stroke="url(#SvgjsLinearGradient1034)" stroke-linecap="round" class="Down"></path><path d="M126 120L125 -327" stroke-width="8" stroke="url(#SvgjsLinearGradient1034)" stroke-linecap="round" class="Down"></path><path d="M1368 390L1367 30" stroke-width="6" stroke="url(#SvgjsLinearGradient1035)" stroke-linecap="round" class="Up"></path><path d="M1640 266L1639 587" stroke-width="6" stroke="url(#SvgjsLinearGradient1034)" stroke-linecap="round" class="Down"></path><path d="M1721 450L1720 70" stroke-width="8" stroke="url(#SvgjsLinearGradient1035)" stroke-linecap="round" class="Up"></path><path d="M874 731L873 1196" stroke-width="6" stroke="url(#SvgjsLinearGradient1034)" stroke-linecap="round" class="Down"></path><path d="M1512 518L1511 816" stroke-width="6" stroke="url(#SvgjsLinearGradient1035)" stroke-linecap="round" class="Up"></path><path d="M1424 720L1423 134" stroke-width="6" stroke="url(#SvgjsLinearGradient1035)" stroke-linecap="round" class="Up"></path><path d="M1562 164L1561 501" stroke-width="10" stroke="url(#SvgjsLinearGradient1034)" stroke-linecap="round" class="Down"></path><path d="M647 96L646 -368" stroke-width="10" stroke="url(#SvgjsLinearGradient1035)" stroke-linecap="round" class="Up"></path><path d="M1408 509L1407 826" stroke-width="10" stroke="url(#SvgjsLinearGradient1035)" stroke-linecap="round" class="Up"></path><path d="M627 550L626 323" stroke-width="8" stroke="url(#SvgjsLinearGradient1035)" stroke-linecap="round" class="Up"></path><path d="M1275 523L1274 248" stroke-width="10" stroke="url(#SvgjsLinearGradient1034)" stroke-linecap="round" class="Down"></path><path d="M85 595L84 1050" stroke-width="6" stroke="url(#SvgjsLinearGradient1034)" stroke-linecap="round" class="Down"></path><path d="M314 128L313 686" stroke-width="8" stroke="url(#SvgjsLinearGradient1035)" stroke-linecap="round" class="Up"></path></g><defs><mask id="SvgjsMask1033"><rect width="1800" height="800" fill="#ffffff"></rect></mask><linearGradient x1="0%" y1="0%" x2="0%" y2="100%" id="SvgjsLinearGradient1034"><stop stop-color="rgba(28, 83, 142, 0)" offset="0"></stop><stop stop-color="#1c538e" offset="1"></stop></linearGradient><linearGradient x1="0%" y1="100%" x2="0%" y2="0%" id="SvgjsLinearGradient1035"><stop stop-color="rgba(28, 83, 142, 0)" offset="0"></stop><stop stop-color="#1c538e" offset="1"></stop></linearGradient></defs></svg>