<svg xmlns="http://www.w3.org/2000/svg" version="1.1" xmlns:xlink="http://www.w3.org/1999/xlink" xmlns:svgjs="http://svgjs.com/svgjs" width="350" height="600" preserveAspectRatio="none" viewBox="0 0 350 600"><g mask="url(&quot;#SvgjsMask1033&quot;)" fill="none"><rect width="350" height="600" x="0" y="0" fill="rgba(26, 84, 143, 1)"></rect><path d="M23 600L623 0L642.5 0L42.5 600z" fill="url(#SvgjsLinearGradient1034)"></path><path d="M125.5 600L725.5 0L790 0L190 600z" fill="url(#SvgjsLinearGradient1034)"></path><path d="M333 600L-267 0L-364.5 0L235.5 600z" fill="url(#SvgjsLinearGradient1035)"></path><path d="M221.5 600L-378.5 0L-437 0L163 600z" fill="url(#SvgjsLinearGradient1035)"></path><path d="M30.92602303547841 600L350 280.9260230354784L350 600z" fill="url(#SvgjsLinearGradient1034)"></path><path d="M0 600L319.0739769645216 600L 0 280.9260230354784z" fill="url(#SvgjsLinearGradient1035)"></path></g><defs><mask id="SvgjsMask1033"><rect width="350" height="600" fill="#ffffff"></rect></mask><linearGradient x1="0%" y1="100%" x2="100%" y2="0%" id="SvgjsLinearGradient1034"><stop stop-color="rgba(189, 201, 225, 0.2)" offset="0"></stop><stop stop-opacity="0" stop-color="rgba(189, 201, 225, 0.2)" offset="0.66"></stop></linearGradient><linearGradient x1="100%" y1="100%" x2="0%" y2="0%" id="SvgjsLinearGradient1035"><stop stop-color="rgba(189, 201, 225, 0.2)" offset="0"></stop><stop stop-opacity="0" stop-color="rgba(189, 201, 225, 0.2)" offset="0.66"></stop></linearGradient></defs></svg>