<svg xmlns="http://www.w3.org/2000/svg" version="1.1" xmlns:xlink="http://www.w3.org/1999/xlink" xmlns:svgjs="http://svgjs.com/svgjs" width="350" height="600" preserveAspectRatio="none" viewBox="0 0 350 600"><g mask="url(&quot;#SvgjsMask1155&quot;)" fill="none"><rect width="350" height="600" x="0" y="0" fill="rgba(32, 82, 133, 1)"></rect><use xlink:href="#SvgjsPath1156" x="30" y="30" stroke="rgba(156, 168, 181, 1)"></use><use xlink:href="#SvgjsPath1157" x="30" y="90" stroke="rgba(156, 168, 181, 1)"></use><use xlink:href="#SvgjsPath1158" x="30" y="150" stroke="rgba(156, 168, 181, 1)"></use><use xlink:href="#SvgjsPath1158" x="30" y="210" stroke="rgba(156, 168, 181, 1)"></use><use xlink:href="#SvgjsPath1157" x="30" y="270" stroke="rgba(156, 168, 181, 1)"></use><use xlink:href="#SvgjsPath1156" x="30" y="330" stroke="rgba(156, 168, 181, 1)"></use><use xlink:href="#SvgjsPath1158" x="30" y="390" stroke="rgba(156, 168, 181, 1)"></use><use xlink:href="#SvgjsPath1159" x="30" y="450" stroke="rgba(156, 168, 181, 1)" stroke-width="3"></use><use xlink:href="#SvgjsPath1160" x="30" y="510" stroke="rgba(156, 168, 181, 1)"></use><use xlink:href="#SvgjsPath1158" x="30" y="570" stroke="rgba(156, 168, 181, 1)"></use><use xlink:href="#SvgjsPath1158" x="90" y="30" stroke="rgba(156, 168, 181, 1)"></use><use xlink:href="#SvgjsPath1161" x="90" y="90" stroke="rgba(156, 168, 181, 1)"></use><use xlink:href="#SvgjsPath1156" x="90" y="150" stroke="rgba(156, 168, 181, 1)"></use><use xlink:href="#SvgjsPath1161" x="90" y="210" stroke="rgba(156, 168, 181, 1)"></use><use xlink:href="#SvgjsPath1156" x="90" y="270" stroke="rgba(156, 168, 181, 1)"></use><use xlink:href="#SvgjsPath1158" x="90" y="330" stroke="rgba(156, 168, 181, 1)"></use><use xlink:href="#SvgjsPath1156" x="90" y="390" stroke="rgba(156, 168, 181, 1)"></use><use xlink:href="#SvgjsPath1161" x="90" y="450" stroke="rgba(156, 168, 181, 1)"></use><use xlink:href="#SvgjsPath1157" x="90" y="510" stroke="rgba(156, 168, 181, 1)"></use><use xlink:href="#SvgjsPath1158" x="90" y="570" stroke="rgba(156, 168, 181, 1)"></use><use xlink:href="#SvgjsPath1156" x="150" y="30" stroke="rgba(156, 168, 181, 1)"></use><use xlink:href="#SvgjsPath1158" x="150" y="90" stroke="rgba(156, 168, 181, 1)"></use><use xlink:href="#SvgjsPath1156" x="150" y="150" stroke="rgba(156, 168, 181, 1)"></use><use xlink:href="#SvgjsPath1158" x="150" y="210" stroke="rgba(156, 168, 181, 1)"></use><use xlink:href="#SvgjsPath1156" x="150" y="270" stroke="rgba(156, 168, 181, 1)"></use><use xlink:href="#SvgjsPath1157" x="150" y="330" stroke="rgba(156, 168, 181, 1)"></use><use xlink:href="#SvgjsPath1158" x="150" y="390" stroke="rgba(156, 168, 181, 1)"></use><use xlink:href="#SvgjsPath1158" x="150" y="450" stroke="rgba(156, 168, 181, 1)"></use><use xlink:href="#SvgjsPath1158" x="150" y="510" stroke="rgba(156, 168, 181, 1)"></use><use xlink:href="#SvgjsPath1156" x="150" y="570" stroke="rgba(156, 168, 181, 1)"></use><use xlink:href="#SvgjsPath1156" x="210" y="30" stroke="rgba(156, 168, 181, 1)"></use><use xlink:href="#SvgjsPath1158" x="210" y="90" stroke="rgba(156, 168, 181, 1)"></use><use xlink:href="#SvgjsPath1156" x="210" y="150" stroke="rgba(156, 168, 181, 1)"></use><use xlink:href="#SvgjsPath1161" x="210" y="210" stroke="rgba(156, 168, 181, 1)"></use><use xlink:href="#SvgjsPath1158" x="210" y="270" stroke="rgba(156, 168, 181, 1)"></use><use xlink:href="#SvgjsPath1158" x="210" y="330" stroke="rgba(156, 168, 181, 1)"></use><use xlink:href="#SvgjsPath1156" x="210" y="390" stroke="rgba(156, 168, 181, 1)"></use><use xlink:href="#SvgjsPath1156" x="210" y="450" stroke="rgba(156, 168, 181, 1)"></use><use xlink:href="#SvgjsPath1158" x="210" y="510" stroke="rgba(156, 168, 181, 1)"></use><use xlink:href="#SvgjsPath1156" x="210" y="570" stroke="rgba(156, 168, 181, 1)"></use><use xlink:href="#SvgjsPath1161" x="270" y="30" stroke="rgba(156, 168, 181, 1)"></use><use xlink:href="#SvgjsPath1156" x="270" y="90" stroke="rgba(156, 168, 181, 1)"></use><use xlink:href="#SvgjsPath1161" x="270" y="150" stroke="rgba(156, 168, 181, 1)"></use><use xlink:href="#SvgjsPath1160" x="270" y="210" stroke="rgba(156, 168, 181, 1)"></use><use xlink:href="#SvgjsPath1156" x="270" y="270" stroke="rgba(156, 168, 181, 1)"></use><use xlink:href="#SvgjsPath1159" x="270" y="330" stroke="rgba(156, 168, 181, 1)" stroke-width="3"></use><use xlink:href="#SvgjsPath1161" x="270" y="390" stroke="rgba(156, 168, 181, 1)"></use><use xlink:href="#SvgjsPath1157" x="270" y="450" stroke="rgba(156, 168, 181, 1)"></use><use xlink:href="#SvgjsPath1161" x="270" y="510" stroke="rgba(156, 168, 181, 1)"></use><use xlink:href="#SvgjsPath1159" x="270" y="570" stroke="rgba(156, 168, 181, 1)" stroke-width="3"></use><use xlink:href="#SvgjsPath1156" x="330" y="30" stroke="rgba(156, 168, 181, 1)"></use><use xlink:href="#SvgjsPath1160" x="330" y="90" stroke="rgba(156, 168, 181, 1)"></use><use xlink:href="#SvgjsPath1158" x="330" y="150" stroke="rgba(156, 168, 181, 1)"></use><use xlink:href="#SvgjsPath1158" x="330" y="210" stroke="rgba(156, 168, 181, 1)"></use><use xlink:href="#SvgjsPath1156" x="330" y="270" stroke="rgba(156, 168, 181, 1)"></use><use xlink:href="#SvgjsPath1156" x="330" y="330" stroke="rgba(156, 168, 181, 1)"></use><use xlink:href="#SvgjsPath1158" x="330" y="390" stroke="rgba(156, 168, 181, 1)"></use><use xlink:href="#SvgjsPath1157" x="330" y="450" stroke="rgba(156, 168, 181, 1)"></use><use xlink:href="#SvgjsPath1159" x="330" y="510" stroke="rgba(156, 168, 181, 1)" stroke-width="3"></use><use xlink:href="#SvgjsPath1156" x="330" y="570" stroke="rgba(156, 168, 181, 1)"></use></g><defs><mask id="SvgjsMask1155"><rect width="350" height="600" fill="#ffffff"></rect></mask><path d="M-1 0 a1 1 0 1 0 2 0 a1 1 0 1 0 -2 0z" id="SvgjsPath1157"></path><path d="M-3 0 a3 3 0 1 0 6 0 a3 3 0 1 0 -6 0z" id="SvgjsPath1160"></path><path d="M-5 0 a5 5 0 1 0 10 0 a5 5 0 1 0 -10 0z" id="SvgjsPath1158"></path><path d="M2 -2 L-2 2z" id="SvgjsPath1161"></path><path d="M6 -6 L-6 6z" id="SvgjsPath1156"></path><path d="M30 -30 L-30 30z" id="SvgjsPath1159"></path></defs></svg>